<mxfile host="app.diagrams.net" agent="Mozilla/5.0 (Windows NT 10.0; Win64; x64) AppleWebKit/537.36 (KHTML, like Gecko) Chrome/131.0.0.0 Safari/537.36 Edg/131.0.0.0" version="26.0.4">
  <diagram name="Page-1" id="3rOE6tVcz0CahiSgjQBt">
    <mxGraphModel dx="1044" dy="558" grid="1" gridSize="10" guides="1" tooltips="1" connect="1" arrows="1" fold="1" page="1" pageScale="1" pageWidth="850" pageHeight="1100" math="0" shadow="0">
      <root>
        <mxCell id="0" />
        <mxCell id="1" parent="0" />
        <mxCell id="yar5uwHtLWU4RBpGB_VV-1" value="admin" style="shape=umlActor;html=1;verticalLabelPosition=bottom;verticalAlign=top;align=center;" vertex="1" parent="1">
          <mxGeometry x="280" y="225" width="30" height="60" as="geometry" />
        </mxCell>
        <mxCell id="yar5uwHtLWU4RBpGB_VV-2" value="Nhập thông tin đăng nhập" style="ellipse;whiteSpace=wrap;html=1;" vertex="1" parent="1">
          <mxGeometry x="620" y="220" width="140" height="70" as="geometry" />
        </mxCell>
        <mxCell id="yar5uwHtLWU4RBpGB_VV-3" value="Đăng nhập" style="ellipse;whiteSpace=wrap;html=1;" vertex="1" parent="1">
          <mxGeometry x="410" y="220" width="140" height="70" as="geometry" />
        </mxCell>
        <mxCell id="yar5uwHtLWU4RBpGB_VV-4" value="" style="edgeStyle=none;html=1;endArrow=block;endFill=0;endSize=12;verticalAlign=bottom;rounded=0;exitX=0.5;exitY=0.5;exitDx=0;exitDy=0;exitPerimeter=0;entryX=0;entryY=0.5;entryDx=0;entryDy=0;" edge="1" parent="1" source="yar5uwHtLWU4RBpGB_VV-1" target="yar5uwHtLWU4RBpGB_VV-3">
          <mxGeometry width="160" relative="1" as="geometry">
            <mxPoint x="265" y="260" as="sourcePoint" />
            <mxPoint x="420" y="215" as="targetPoint" />
          </mxGeometry>
        </mxCell>
        <mxCell id="yar5uwHtLWU4RBpGB_VV-5" value="Thông báo lỗi" style="ellipse;whiteSpace=wrap;html=1;" vertex="1" parent="1">
          <mxGeometry x="620" y="360" width="140" height="70" as="geometry" />
        </mxCell>
        <mxCell id="yar5uwHtLWU4RBpGB_VV-6" value="Phân quyền" style="ellipse;whiteSpace=wrap;html=1;" vertex="1" parent="1">
          <mxGeometry x="620" y="80" width="140" height="70" as="geometry" />
        </mxCell>
        <mxCell id="yar5uwHtLWU4RBpGB_VV-10" value="&amp;lt;&amp;lt;include&amp;gt;&amp;gt;" style="edgeStyle=none;html=1;endArrow=open;verticalAlign=bottom;dashed=1;labelBackgroundColor=none;rounded=0;exitX=0;exitY=0.5;exitDx=0;exitDy=0;entryX=1;entryY=0.5;entryDx=0;entryDy=0;" edge="1" parent="1" source="yar5uwHtLWU4RBpGB_VV-2" target="yar5uwHtLWU4RBpGB_VV-3">
          <mxGeometry width="160" relative="1" as="geometry">
            <mxPoint x="570" y="475" as="sourcePoint" />
            <mxPoint x="480" y="220" as="targetPoint" />
          </mxGeometry>
        </mxCell>
        <mxCell id="yar5uwHtLWU4RBpGB_VV-13" value="&amp;lt;&amp;lt;extend&amp;gt;&amp;gt;" style="edgeStyle=none;html=1;startArrow=open;endArrow=none;startSize=12;verticalAlign=bottom;dashed=1;labelBackgroundColor=none;rounded=0;entryX=0.5;entryY=0;entryDx=0;entryDy=0;exitX=0.5;exitY=1;exitDx=0;exitDy=0;" edge="1" parent="1" source="yar5uwHtLWU4RBpGB_VV-2" target="yar5uwHtLWU4RBpGB_VV-5">
          <mxGeometry width="160" relative="1" as="geometry">
            <mxPoint x="490" y="300" as="sourcePoint" />
            <mxPoint x="690" y="385" as="targetPoint" />
          </mxGeometry>
        </mxCell>
        <mxCell id="yar5uwHtLWU4RBpGB_VV-14" value="freelancer" style="shape=umlActor;html=1;verticalLabelPosition=bottom;verticalAlign=top;align=center;" vertex="1" parent="1">
          <mxGeometry x="320" y="340" width="30" height="60" as="geometry" />
        </mxCell>
        <mxCell id="yar5uwHtLWU4RBpGB_VV-15" value="nhà tuyển dụng" style="shape=umlActor;html=1;verticalLabelPosition=bottom;verticalAlign=top;align=center;" vertex="1" parent="1">
          <mxGeometry x="320" y="100" width="30" height="60" as="geometry" />
        </mxCell>
        <mxCell id="yar5uwHtLWU4RBpGB_VV-16" value="" style="edgeStyle=none;html=1;endArrow=block;endFill=0;endSize=12;verticalAlign=bottom;rounded=0;exitX=0.48;exitY=0.633;exitDx=0;exitDy=0;exitPerimeter=0;entryX=0;entryY=0;entryDx=0;entryDy=0;" edge="1" parent="1" source="yar5uwHtLWU4RBpGB_VV-15" target="yar5uwHtLWU4RBpGB_VV-3">
          <mxGeometry width="160" relative="1" as="geometry">
            <mxPoint x="305" y="265" as="sourcePoint" />
            <mxPoint x="420" y="265" as="targetPoint" />
          </mxGeometry>
        </mxCell>
        <mxCell id="yar5uwHtLWU4RBpGB_VV-17" value="" style="edgeStyle=none;html=1;endArrow=block;endFill=0;endSize=12;verticalAlign=bottom;rounded=0;exitX=0.5;exitY=0.5;exitDx=0;exitDy=0;exitPerimeter=0;entryX=0;entryY=1;entryDx=0;entryDy=0;" edge="1" parent="1" source="yar5uwHtLWU4RBpGB_VV-14" target="yar5uwHtLWU4RBpGB_VV-3">
          <mxGeometry width="160" relative="1" as="geometry">
            <mxPoint x="315" y="275" as="sourcePoint" />
            <mxPoint x="420" y="280" as="targetPoint" />
          </mxGeometry>
        </mxCell>
        <mxCell id="yar5uwHtLWU4RBpGB_VV-20" value="&amp;lt;&amp;lt;include&amp;gt;&amp;gt;" style="edgeStyle=none;html=1;endArrow=open;verticalAlign=bottom;dashed=1;labelBackgroundColor=none;rounded=0;exitX=0.5;exitY=0;exitDx=0;exitDy=0;entryX=0.5;entryY=1;entryDx=0;entryDy=0;" edge="1" parent="1" source="yar5uwHtLWU4RBpGB_VV-2" target="yar5uwHtLWU4RBpGB_VV-6">
          <mxGeometry width="160" relative="1" as="geometry">
            <mxPoint x="750" y="200" as="sourcePoint" />
            <mxPoint x="680" y="200" as="targetPoint" />
          </mxGeometry>
        </mxCell>
        <mxCell id="yar5uwHtLWU4RBpGB_VV-21" value="Chuyển đến giao diện" style="ellipse;whiteSpace=wrap;html=1;" vertex="1" parent="1">
          <mxGeometry x="800" y="170" width="140" height="70" as="geometry" />
        </mxCell>
        <mxCell id="yar5uwHtLWU4RBpGB_VV-22" value="&amp;lt;&amp;lt;include&amp;gt;&amp;gt;" style="edgeStyle=none;html=1;endArrow=open;verticalAlign=bottom;dashed=1;labelBackgroundColor=none;rounded=0;exitX=1;exitY=0.5;exitDx=0;exitDy=0;entryX=0;entryY=0.5;entryDx=0;entryDy=0;" edge="1" parent="1" source="yar5uwHtLWU4RBpGB_VV-6" target="yar5uwHtLWU4RBpGB_VV-21">
          <mxGeometry width="160" relative="1" as="geometry">
            <mxPoint x="700" y="230" as="sourcePoint" />
            <mxPoint x="700" y="160" as="targetPoint" />
          </mxGeometry>
        </mxCell>
        <mxCell id="yar5uwHtLWU4RBpGB_VV-24" value="&amp;lt;&amp;lt;include&amp;gt;&amp;gt;" style="edgeStyle=none;html=1;endArrow=open;verticalAlign=bottom;dashed=1;labelBackgroundColor=none;rounded=0;entryX=1;entryY=0.5;entryDx=0;entryDy=0;exitX=0;exitY=0.5;exitDx=0;exitDy=0;" edge="1" parent="1" source="yar5uwHtLWU4RBpGB_VV-25" target="yar5uwHtLWU4RBpGB_VV-5">
          <mxGeometry width="160" relative="1" as="geometry">
            <mxPoint x="810" y="350" as="sourcePoint" />
            <mxPoint x="700" y="160" as="targetPoint" />
          </mxGeometry>
        </mxCell>
        <mxCell id="yar5uwHtLWU4RBpGB_VV-25" value="Đăng ký" style="ellipse;whiteSpace=wrap;html=1;" vertex="1" parent="1">
          <mxGeometry x="800" y="260" width="140" height="70" as="geometry" />
        </mxCell>
      </root>
    </mxGraphModel>
  </diagram>
</mxfile>
